<?xml version="1.0" encoding="UTF-8"?>
<svg version="1.1" xmlns="http://www.w3.org/2000/svg" width="128" height="128">
<path d="M0 0 C1.79924619 -0.00389392 3.59849147 -0.00823001 5.3977356 -0.01298523 C9.15825386 -0.02042043 12.91867819 -0.02017588 16.67919922 -0.01489258 C21.47253633 -0.0091023 26.26548648 -0.02603148 31.05875969 -0.04923725 C34.7719239 -0.06404609 38.48499645 -0.0648366 42.19818497 -0.06172752 C43.96423229 -0.06223717 45.73028523 -0.06740711 47.49630356 -0.07753944 C72.21188693 -0.20195732 72.21188693 -0.20195732 80.13671875 7.58984375 C89.13575796 18.3298415 86.73200664 34.21055572 86.73828125 47.44140625 C86.74150431 49.06036405 86.74486912 50.67932158 86.74836731 52.29827881 C86.75430746 55.66663285 86.75621222 59.03496141 86.75561523 62.40332031 C86.75551318 66.6989315 86.76923273 70.99437902 86.78638744 75.28995132 C86.79754592 78.62384786 86.79953336 81.95770505 86.79900551 85.29161835 C86.80017722 86.87510498 86.804553 88.45859292 86.81233788 90.04206085 C86.91006791 111.94577508 86.91006791 111.94577508 79.5703125 121.30078125 C73.68458583 127.03559185 67.42503005 127.60086001 59.60253906 127.60717773 C58.72039734 127.61550125 57.83825562 127.62382477 56.92938232 127.63240051 C54.02318866 127.65642621 51.11721984 127.66526407 48.2109375 127.671875 C46.18080582 127.6808478 44.1506748 127.68996976 42.12054443 127.69923401 C37.8671305 127.71570697 33.61379511 127.7234209 29.36035156 127.72631836 C23.92881068 127.73169673 18.49801538 127.76936193 13.06668472 127.81506252 C8.87316235 127.84491002 4.67981775 127.85204361 0.48619843 127.85304451 C-1.51515361 127.85723243 -3.51650687 127.8696089 -5.5177536 127.89056206 C-26.44927522 128.09225416 -26.44927522 128.09225416 -33.4296875 122.30078125 C-42.68572424 111.80838366 -41.73050823 99.16445437 -41.6953125 85.984375 C-41.69666193 84.20036262 -41.69860478 82.41635061 -41.70111084 80.63233948 C-41.70404823 76.90630569 -41.69980869 73.18036824 -41.69042969 69.4543457 C-41.67902768 64.69441542 -41.68560818 59.93471054 -41.69757462 55.17478848 C-41.70482362 51.49520692 -41.70249149 47.81567825 -41.69731903 44.13609505 C-41.69599137 42.38153112 -41.69759906 40.62696229 -41.70227814 38.8724041 C-41.70739452 36.41537745 -41.69956235 33.95870916 -41.68847656 31.50170898 C-41.69252502 30.78720078 -41.69657349 30.07269257 -41.70074463 29.33653259 C-41.62616993 20.35081355 -39.38469183 12.18164587 -32.86328125 5.7578125 C-23.66518912 -1.51956433 -11.06448636 -0.0099968 0 0 Z " fill="#0377FE" transform="translate(41.4296875,-0.30078125)"/>
<path d="M0 0 C1.12562347 -0.03542908 2.25124695 -0.07085815 3.41098022 -0.10736084 C7.91895084 -0.21500218 12.42692148 -0.30389403 16.93579674 -0.36397934 C20.35281068 -0.40996532 23.76635045 -0.47685576 27.18164062 -0.59667969 C52.17624186 -1.4509404 52.17624186 -1.4509404 58.65974426 3.60691833 C62.77623432 7.77735145 64.31888746 12.08620953 64.81103516 17.83105469 C64.73908332 20.04847945 64.60952509 22.26473827 64.42431641 24.47558594 C64.3746875 25.61833984 64.32505859 26.76109375 64.27392578 27.93847656 C64.14551159 30.72856661 63.96595524 33.50477011 63.73681641 36.28808594 C62.77001953 36.23007812 61.80322266 36.17207031 60.80712891 36.11230469 C52.48647738 35.82396528 45.57616616 35.97001211 38.73681641 41.28808594 C33.71359654 46.48958292 30.48363762 52.13526449 30.29931641 59.47558594 C30.44894662 66.41468705 32.70910282 72.14991928 37.55712891 77.17480469 C39.23706353 78.62629632 40.9579943 79.96181051 42.73681641 81.28808594 C43.72681641 82.27808594 43.72681641 82.27808594 44.73681641 83.28808594 C37.63436641 83.31335381 30.53192793 83.33091795 23.42944336 83.34301758 C21.01114468 83.34805943 18.59284907 83.35489272 16.17456055 83.36352539 C12.70702357 83.3755975 9.23952674 83.38131557 5.77197266 83.38574219 C4.68344498 83.39090347 3.5949173 83.39606476 2.47340393 83.40138245 C0.97196083 83.40149574 0.97196083 83.40149574 -0.55981445 83.40161133 C-1.88885048 83.40494225 -1.88885048 83.40494225 -3.24473572 83.40834045 C-5.26318359 83.28808594 -5.26318359 83.28808594 -6.26318359 82.28808594 C-6.36354175 79.76806143 -6.39936071 77.27542393 -6.39257812 74.75488281 C-6.39433044 73.96630386 -6.39608276 73.17772491 -6.39788818 72.36524963 C-6.40230718 69.74575634 -6.39936855 67.12632998 -6.39599609 64.50683594 C-6.39666912 62.69462064 -6.39763913 60.88240542 -6.39889526 59.07019043 C-6.4003723 55.26699974 -6.3982175 51.4638325 -6.39355469 47.66064453 C-6.3878574 42.77430099 -6.39113637 37.88801236 -6.39712715 33.00167084 C-6.40073261 29.25803205 -6.39959425 25.51440638 -6.39699936 21.77076721 C-6.39633005 19.96855157 -6.39715866 18.16633476 -6.39947891 16.36412048 C-6.40200519 13.84981103 -6.39816521 11.33559177 -6.39257812 8.82128906 C-6.39460236 8.06904556 -6.39662659 7.31680206 -6.39871216 6.54176331 C-6.37335636 0.41394692 -6.0226095 0.18738931 0 0 Z " fill="#FBFCFE" transform="translate(29.26318359375,20.7119140625)"/>
<path d="M0 0 C1.79924619 -0.00389392 3.59849147 -0.00823001 5.3977356 -0.01298523 C9.15825386 -0.02042043 12.91867819 -0.02017588 16.67919922 -0.01489258 C21.47253633 -0.0091023 26.26548648 -0.02603148 31.05875969 -0.04923725 C34.7719239 -0.06404609 38.48499645 -0.0648366 42.19818497 -0.06172752 C43.96423229 -0.06223717 45.73028523 -0.06740711 47.49630356 -0.07753944 C72.21188693 -0.20195732 72.21188693 -0.20195732 80.13671875 7.58984375 C89.13575796 18.3298415 86.73200664 34.21055572 86.73828125 47.44140625 C86.74150431 49.06036405 86.74486912 50.67932158 86.74836731 52.29827881 C86.75430746 55.66663285 86.75621222 59.03496141 86.75561523 62.40332031 C86.75551318 66.6989315 86.76923273 70.99437902 86.78638744 75.28995132 C86.79754592 78.62384786 86.79953336 81.95770505 86.79900551 85.29161835 C86.80017722 86.87510498 86.804553 88.45859292 86.81233788 90.04206085 C86.91006791 111.94577508 86.91006791 111.94577508 79.5703125 121.30078125 C73.68458583 127.03559185 67.42503005 127.60086001 59.60253906 127.60717773 C58.72039734 127.61550125 57.83825562 127.62382477 56.92938232 127.63240051 C54.02318866 127.65642621 51.11721984 127.66526407 48.2109375 127.671875 C46.18080582 127.6808478 44.1506748 127.68996976 42.12054443 127.69923401 C37.8671305 127.71570697 33.61379511 127.7234209 29.36035156 127.72631836 C23.92881068 127.73169673 18.49801538 127.76936193 13.06668472 127.81506252 C8.87316235 127.84491002 4.67981775 127.85204361 0.48619843 127.85304451 C-1.51515361 127.85723243 -3.51650687 127.8696089 -5.5177536 127.89056206 C-26.44927522 128.09225416 -26.44927522 128.09225416 -33.4296875 122.30078125 C-42.68572424 111.80838366 -41.73050823 99.16445437 -41.6953125 85.984375 C-41.69666193 84.20036262 -41.69860478 82.41635061 -41.70111084 80.63233948 C-41.70404823 76.90630569 -41.69980869 73.18036824 -41.69042969 69.4543457 C-41.67902768 64.69441542 -41.68560818 59.93471054 -41.69757462 55.17478848 C-41.70482362 51.49520692 -41.70249149 47.81567825 -41.69731903 44.13609505 C-41.69599137 42.38153112 -41.69759906 40.62696229 -41.70227814 38.8724041 C-41.70739452 36.41537745 -41.69956235 33.95870916 -41.68847656 31.50170898 C-41.69252502 30.78720078 -41.69657349 30.07269257 -41.70074463 29.33653259 C-41.62616993 20.35081355 -39.38469183 12.18164587 -32.86328125 5.7578125 C-23.66518912 -1.51956433 -11.06448636 -0.0099968 0 0 Z M-33.4296875 10.30078125 C-38.42125887 17.13224923 -38.57827649 24.30211362 -38.59082031 32.58764648 C-38.59578522 33.38536469 -38.60075012 34.18308289 -38.60586548 35.00497437 C-38.62037635 37.62311692 -38.62726911 40.24119898 -38.6328125 42.859375 C-38.63563988 43.75867296 -38.63846725 44.65797092 -38.64138031 45.58452034 C-38.65632506 50.33995987 -38.66558533 55.09536941 -38.66992188 59.85083008 C-38.67541155 64.74762378 -38.69946357 69.64414015 -38.72789383 74.54084682 C-38.74656296 78.32164809 -38.751728 82.10238294 -38.75325775 85.88322639 C-38.75627318 87.68804509 -38.76426398 89.49286293 -38.77744293 91.29763603 C-38.79459967 93.82681039 -38.7926004 96.3553117 -38.78613281 98.88452148 C-38.7953476 99.62087326 -38.80456238 100.35722504 -38.8140564 101.1158905 C-38.76066815 107.81925298 -37.14855271 114.30437826 -32.2421875 119.17578125 C-31.71238281 119.73007813 -31.18257812 120.284375 -30.63671875 120.85546875 C-25.03982394 124.5206919 -18.24890208 124.59652484 -11.76977539 124.57543945 C-10.53149742 124.58310585 -10.53149742 124.58310585 -9.26820374 124.59092712 C-6.56284154 124.60472871 -3.85773678 124.60387364 -1.15234375 124.6015625 C0.74280388 124.60545434 2.63795065 124.60979001 4.53309631 124.61454773 C8.49629551 124.62198946 12.45940558 124.62173334 16.42260742 124.61645508 C21.48408193 124.61066031 26.54519053 124.62760165 31.60660458 124.65079975 C35.5178488 124.66557911 39.4290057 124.66640313 43.3402729 124.66329002 C45.20566088 124.66380103 47.07105404 124.66899698 48.93641472 124.67910194 C51.55151592 124.69153225 54.16591467 124.68463584 56.78100586 124.6730957 C57.54024353 124.68073944 58.2994812 124.68838318 59.08172607 124.69625854 C65.18136161 124.63719849 71.6706319 123.74830228 76.46371365 119.70262623 C82.50082848 113.48860818 82.87065296 105.54960704 82.8449707 97.30200195 C82.8526371 96.01019516 82.8526371 96.01019516 82.86045837 94.69229126 C82.87426103 91.87030933 82.87340552 89.04857399 82.87109375 86.2265625 C82.8749841 84.25457164 82.87931947 82.28258161 82.88407898 80.31059265 C82.89151982 76.18937453 82.89126417 72.06824214 82.88598633 67.94702148 C82.88017612 62.66768469 82.89717044 57.38869696 82.920331 52.10941792 C82.93505955 48.04221041 82.93594155 43.97508734 82.93282127 39.90785789 C82.93333432 37.96101372 82.93856895 36.0141648 82.94863319 34.06734657 C82.96097142 31.348458 82.95422312 28.63025457 82.94262695 25.91137695 C82.95027069 25.10970596 82.95791443 24.30803497 82.96578979 23.48207092 C82.9230472 18.94736728 82.48052647 15.86528117 79.5703125 12.30078125 C78.9103125 12.30078125 78.2503125 12.30078125 77.5703125 12.30078125 C77.32185074 11.69673462 77.07338898 11.09268799 76.81739807 10.47033691 C74.33374108 6.14951706 70.18855248 4.71233915 65.5703125 3.30078125 C59.37423223 2.40918209 53.06682057 2.64446744 46.82421875 2.70703125 C45.00398335 2.70874569 43.18374548 2.70867329 41.36351013 2.70690918 C37.56167748 2.70855607 33.76043898 2.7271353 29.95874023 2.75878906 C25.1126797 2.79843588 20.26739652 2.80283335 15.42120457 2.79532623 C11.66595989 2.79223994 7.91088629 2.80443618 4.15568352 2.82145691 C2.37011731 2.82843324 0.58453173 2.83161804 -1.2010479 2.83076477 C-18.72594994 2.29078996 -18.72594994 2.29078996 -33.4296875 10.30078125 Z " fill="#2899F8" transform="translate(41.4296875,-0.30078125)"/>
<path d="M0 0 C1.79924619 -0.00389392 3.59849147 -0.00823001 5.3977356 -0.01298523 C9.15825386 -0.02042043 12.91867819 -0.02017588 16.67919922 -0.01489258 C21.47253633 -0.0091023 26.26548648 -0.02603148 31.05875969 -0.04923725 C34.7719239 -0.06404609 38.48499645 -0.0648366 42.19818497 -0.06172752 C43.96423229 -0.06223717 45.73028523 -0.06740711 47.49630356 -0.07753944 C72.07008625 -0.2012435 72.07008625 -0.2012435 80.12890625 7.546875 C82.531933 10.47088315 84.45775306 13.66860192 85.5703125 17.30078125 C85.2403125 17.96078125 84.9103125 18.62078125 84.5703125 19.30078125 C82.68589032 17.48883684 80.87348258 15.69794327 79.28515625 13.6171875 C75.40987344 8.59767077 71.74212484 5.92804651 65.5703125 4.30078125 C59.35156215 3.72521021 53.16247191 3.76126239 46.921875 3.8046875 C45.10020897 3.80453226 43.27854261 3.80303919 41.45687866 3.80027771 C37.64916277 3.7988978 33.8418254 3.81138076 30.03417969 3.83422852 C25.18026412 3.86257121 20.32697863 3.85988127 15.47301674 3.8471384 C11.71349819 3.84014488 7.95412235 3.84801288 4.19462204 3.86039543 C2.4062594 3.86487719 0.61788126 3.86527574 -1.17048264 3.86133003 C-16.62232149 3.09079647 -16.62232149 3.09079647 -30.08627319 8.90455627 C-30.75126328 9.59568764 -30.75126328 9.59568764 -31.4296875 10.30078125 C-32.0896875 10.30078125 -32.7496875 10.30078125 -33.4296875 10.30078125 C-36.70651572 17.55661517 -37.73298278 24.95690234 -37.67260742 32.84643555 C-37.67450577 33.64765839 -37.67640411 34.44888123 -37.67835999 35.27438354 C-37.68202888 37.89135909 -37.67142091 40.50804964 -37.66015625 43.125 C-37.6589623 44.95864327 -37.65851174 46.79228715 -37.6587677 48.62593079 C-37.65720964 52.45451733 -37.64897047 56.28300946 -37.63549805 60.11157227 C-37.61847319 65.01065182 -37.61468519 69.90962826 -37.61544323 74.80873394 C-37.61517097 78.58945188 -37.60968134 82.37014744 -37.60244179 86.15085793 C-37.59926836 87.95731245 -37.59729082 89.76376951 -37.59654808 91.57022667 C-37.59437245 94.09463169 -37.58560291 96.61892884 -37.57495117 99.14331055 C-37.57540436 99.88371078 -37.57585754 100.62411102 -37.57632446 101.38694763 C-37.55127817 105.46023698 -37.2176548 109.30387941 -36.4296875 113.30078125 C-37.4196875 112.97078125 -38.4096875 112.64078125 -39.4296875 112.30078125 C-41.22222579 106.86964522 -41.72076948 101.79585426 -41.68847656 96.08398438 C-41.6919812 95.30562729 -41.69548584 94.5272702 -41.69909668 93.72532654 C-41.70782873 91.17746807 -41.70209525 88.62989207 -41.6953125 86.08203125 C-41.6966616 84.29658963 -41.69860418 82.51114838 -41.70111084 80.72570801 C-41.70405056 76.99369795 -41.69980164 73.26178399 -41.69042969 69.52978516 C-41.67903587 64.76197916 -41.68560152 59.99439839 -41.69757462 55.22660065 C-41.70482439 51.5427279 -41.70249099 47.85890797 -41.69731903 44.17503357 C-41.69599115 42.41767856 -41.69759984 40.66031865 -41.70227814 38.90296936 C-41.70739485 36.44104427 -41.69956153 33.97947679 -41.68847656 31.51757812 C-41.69252502 30.80149887 -41.69657349 30.08541962 -41.70074463 29.34764099 C-41.62629018 20.35733265 -39.38853411 12.18543065 -32.86328125 5.7578125 C-23.66518912 -1.51956433 -11.06448636 -0.0099968 0 0 Z " fill="#349EF8" transform="translate(41.4296875,-0.30078125)"/>
<path d="M0 0 C3.5 0.125 3.5 0.125 4.5 1.125 C4.57226502 2.97787502 4.5838122 4.83333878 4.5625 6.6875 C4.55347656 7.69941406 4.54445313 8.71132812 4.53515625 9.75390625 C4.52355469 10.53636719 4.51195313 11.31882812 4.5 12.125 C5.28246094 12.11339844 6.06492187 12.10179688 6.87109375 12.08984375 C7.88300781 12.08082031 8.89492187 12.07179688 9.9375 12.0625 C10.94683594 12.05089844 11.95617187 12.03929688 12.99609375 12.02734375 C15.5 12.125 15.5 12.125 16.5 13.125 C16.6875 16.0625 16.6875 16.0625 16.5 19.125 C14.5 21.125 14.5 21.125 12.1171875 21.3203125 C11.21226563 21.29710938 10.30734375 21.27390625 9.375 21.25 C8.46492188 21.23195313 7.55484375 21.21390625 6.6171875 21.1953125 C5.91851562 21.17210938 5.21984375 21.14890625 4.5 21.125 C4.51160156 21.83527344 4.52320312 22.54554687 4.53515625 23.27734375 C4.54417969 24.19644531 4.55320312 25.11554688 4.5625 26.0625 C4.57410156 26.97902344 4.58570312 27.89554688 4.59765625 28.83984375 C4.5 31.125 4.5 31.125 3.5 32.125 C0 32.25 0 32.25 -3.5 32.125 C-4.5 31.125 -4.5 31.125 -4.59765625 28.83984375 C-4.58605469 27.92332031 -4.57445313 27.00679687 -4.5625 26.0625 C-4.55347656 25.14339844 -4.54445313 24.22429687 -4.53515625 23.27734375 C-4.52355469 22.56707031 -4.51195313 21.85679688 -4.5 21.125 C-5.21027344 21.13660156 -5.92054687 21.14820312 -6.65234375 21.16015625 C-7.57144531 21.16917969 -8.49054688 21.17820312 -9.4375 21.1875 C-10.35402344 21.19910156 -11.27054687 21.21070312 -12.21484375 21.22265625 C-14.5 21.125 -14.5 21.125 -15.5 20.125 C-15.64115161 17.45441149 -15.54247107 14.80067762 -15.5 12.125 C-11.87 12.125 -8.24 12.125 -4.5 12.125 C-4.520625 10.330625 -4.54125 8.53625 -4.5625 6.6875 C-4.5838122 4.83333878 -4.57226502 2.97787502 -4.5 1.125 C-3.5 0.125 -3.5 0.125 0 0 Z " fill="#F7FAFE" transform="translate(83.5,64.875)"/>
<path d="M0 0 C10.29411765 0 10.29411765 0 15 4 C16.60086627 7.20173254 16.49917089 10.52577059 16 14 C14.20636089 16.8100346 12.98119065 18.50940468 10 20 C6.7 20 3.4 20 0 20 C0 13.4 0 6.8 0 0 Z " fill="#0D7AFE" transform="translate(48,29)"/>
<path d="M0 0 C10.11029817 -0.06977493 20.22053824 -0.12295013 30.33102894 -0.15543652 C35.02668122 -0.17103512 39.72216771 -0.19216624 44.41772461 -0.22631836 C48.95649005 -0.25912026 53.49509688 -0.27689658 58.03397179 -0.28463173 C59.75817038 -0.29013809 61.48236114 -0.30088981 63.20649147 -0.31719017 C87.46316803 -0.53721917 87.46316803 -0.53721917 95.55859375 7.24609375 C97.9616205 10.1701019 99.88744056 13.36782067 101 17 C100.67 17.66 100.34 18.32 100 19 C98.12767279 17.19968537 96.32171642 15.42426352 94.75 13.3515625 C90.68836349 8.06681955 86.37394896 5.03848271 80 3 C73.91072829 2.27213652 67.86786365 2.2767253 61.7421875 2.29296875 C59.98526306 2.27983422 58.22835366 2.26452464 56.47146606 2.24714661 C51.87821397 2.20748874 47.28535863 2.19711864 42.69195557 2.19311523 C37.99243277 2.18374735 33.29313957 2.14631114 28.59375 2.11132812 C19.39584388 2.04694826 10.19811176 2.01354761 1 2 C0.67 1.34 0.34 0.68 0 0 Z " fill="#13BEFE" transform="translate(26,0)"/>
<path d="M0 0 C9 0 9 0 12.0625 1.625 C14 4 14 4 14.5 7.0625 C14 10 14 10 12.9375 11.875 C9.99772876 13.58196395 7.32129197 13.18799766 4 13 C4 15.31 4 17.62 4 20 C2.68 20 1.36 20 0 20 C0 13.4 0 6.8 0 0 Z " fill="#107BFE" transform="translate(31,29)"/>
<path d="M0 0 C3 3 3 3 3.33625793 6.5920105 C3.33330218 8.1133715 3.313424 9.63475377 3.28051758 11.15576172 C3.27441467 11.9869754 3.26831177 12.81818909 3.26202393 13.67459106 C3.23781802 16.42667681 3.19164063 19.17790564 3.14453125 21.9296875 C3.121569 23.84155064 3.09966669 25.75342677 3.07878113 27.66531372 C3.03169444 31.67534454 2.97418446 35.68504869 2.90893555 39.69482422 C2.82583059 44.83168579 2.76466643 49.96851406 2.71085072 55.10575676 C2.66769527 59.05554415 2.61478982 63.00515293 2.55875206 66.95477676 C2.53268974 68.84854928 2.50920599 70.74235911 2.48835182 72.63619614 C2.45732278 75.28619708 2.41364142 77.93569309 2.36645508 80.58544922 C2.35958176 81.36692322 2.35270844 82.14839722 2.34562683 82.95355225 C2.25803889 87.05720953 1.82948773 90.3037691 0 94 C-0.33 94 -0.66 94 -1 94 C-0.67 62.98 -0.34 31.96 0 0 Z " fill="#3580F3" transform="translate(124,17)"/>
<path d="M0 0 C1.51400391 0.01740234 1.51400391 0.01740234 3.05859375 0.03515625 C4.07050781 0.04417969 5.08242187 0.05320312 6.125 0.0625 C7.29869141 0.07990234 7.29869141 0.07990234 8.49609375 0.09765625 C8.49609375 1.41765625 8.49609375 2.73765625 8.49609375 4.09765625 C5.85609375 4.09765625 3.21609375 4.09765625 0.49609375 4.09765625 C0.49609375 5.41765625 0.49609375 6.73765625 0.49609375 8.09765625 C2.47609375 8.09765625 4.45609375 8.09765625 6.49609375 8.09765625 C6.82609375 9.41765625 7.15609375 10.73765625 7.49609375 12.09765625 C5.18609375 12.09765625 2.87609375 12.09765625 0.49609375 12.09765625 C0.49609375 14.73765625 0.49609375 17.37765625 0.49609375 20.09765625 C-0.82390625 20.09765625 -2.14390625 20.09765625 -3.50390625 20.09765625 C-3.53279139 16.95184202 -3.55066548 13.80606156 -3.56640625 10.66015625 C-3.57478516 9.76232422 -3.58316406 8.86449219 -3.59179688 7.93945312 C-3.59501953 7.08544922 -3.59824219 6.23144531 -3.6015625 5.3515625 C-3.60941772 4.16542358 -3.60941772 4.16542358 -3.61743164 2.95532227 C-3.4390318 0.03608708 -2.92971854 0.11426359 0 0 Z " fill="#0F7AFE" transform="translate(70.50390625,28.90234375)"/>
<path d="M0 0 C10.23 0 20.46 0 31 0 C31.33 1.32 31.66 2.64 32 4 C21.44 4 10.88 4 0 4 C0 2.68 0 1.36 0 0 Z " fill="#1E7FFE" transform="translate(31,57)"/>
<path d="M0 0 C7.92 0 15.84 0 24 0 C24.33 1.32 24.66 2.64 25 4 C16.75 4 8.5 4 0 4 C0 2.68 0 1.36 0 0 Z " fill="#127CFE" transform="translate(31,69)"/>
<path d="M0 0 C7.59 0 15.18 0 23 0 C23 1.32 23 2.64 23 4 C15.41 4 7.82 4 0 4 C0 2.68 0 1.36 0 0 Z " fill="#0F7AFE" transform="translate(31,81)"/>
<path d="M0 0 C5 0 5 0 6.8125 1.125 C8.55198782 3.87155972 8.39769128 5.81846974 8 9 C6.8125 10.875 6.8125 10.875 5 12 C3.35 12 1.7 12 0 12 C0 8.04 0 4.08 0 0 Z " fill="#F6F9FE" transform="translate(52,33)"/>
<path d="M0 0 C2.375 -0.125 2.375 -0.125 5 0 C5.66 0.66 6.32 1.32 7 2 C7.33 1.34 7.66 0.68 8 0 C8.66 0 9.32 0 10 0 C10.36923077 5.53846154 10.36923077 5.53846154 8.5 7.875 C8.005 8.24625 7.51 8.6175 7 9 C6.01 8.67 5.02 8.34 4 8 C4 7.34 4 6.68 4 6 C2.68 6 1.36 6 0 6 C0 4.02 0 2.04 0 0 Z " fill="#1A80FE" transform="translate(35,33)"/>
<path d="M0 0 C1.32 0 2.64 0 4 0 C5.03435556 1.64556566 6.02763513 3.3170608 7 5 C9.42357244 7.35824704 11.96156813 9.48078406 15 11 C15 11.66 15 12.32 15 13 C15.99 13.33 16.98 13.66 18 14 C16 15 16 15 13.828125 14.3203125 C7.05852659 11.18168051 3.39016127 7.6700734 0 1 C0 0.67 0 0.34 0 0 Z " fill="#2C8DF7" transform="translate(2,112)"/>
<path d="M0 0 C4.23775922 0.48897222 7.20576452 2.94496921 10 6 C11.63524166 8.5480482 13.07483112 11.10964481 14 14 C13.67 14.66 13.34 15.32 13 16 C9.94060969 13.05827855 7.19041125 9.92969403 4.46484375 6.68359375 C3.01709678 4.96420823 3.01709678 4.96420823 1.31640625 3.41015625 C0 2 0 2 0 0 Z " fill="#2E99F8" transform="translate(113,3)"/>
<path d="M0 0 C1.51400391 0.01740234 1.51400391 0.01740234 3.05859375 0.03515625 C4.07050781 0.04417969 5.08242187 0.05320312 6.125 0.0625 C7.29869141 0.07990234 7.29869141 0.07990234 8.49609375 0.09765625 C8.49609375 1.08765625 8.49609375 2.07765625 8.49609375 3.09765625 C7.23796875 3.11828125 5.97984375 3.13890625 4.68359375 3.16015625 C3.97589844 3.17175781 3.26820312 3.18335938 2.5390625 3.1953125 C0.49609375 3.09765625 0.49609375 3.09765625 -2.50390625 2.09765625 C-2.50390625 7.70765625 -2.50390625 13.31765625 -2.50390625 19.09765625 C-1.51390625 19.42765625 -0.52390625 19.75765625 0.49609375 20.09765625 C-0.82390625 20.09765625 -2.14390625 20.09765625 -3.50390625 20.09765625 C-3.53279139 16.95184202 -3.55066548 13.80606156 -3.56640625 10.66015625 C-3.57478516 9.76232422 -3.58316406 8.86449219 -3.59179688 7.93945312 C-3.59501953 7.08544922 -3.59824219 6.23144531 -3.6015625 5.3515625 C-3.60941772 4.16542358 -3.60941772 4.16542358 -3.61743164 2.95532227 C-3.4390318 0.03608708 -2.92971854 0.11426359 0 0 Z " fill="#2A88FE" transform="translate(70.50390625,28.90234375)"/>
<path d="M0 0 C6.40141012 -0.51211281 9.98010898 -0.11888494 15 4 C14.01 5.485 14.01 5.485 13 7 C10.50638429 5.79618552 8.31856917 4.54571278 6 3 C4.0103005 2.60986284 2.00980131 2.26797351 0 2 C0 1.34 0 0.68 0 0 Z " fill="#2282FE" transform="translate(48,29)"/>
<path d="M0 0 C-2.4453385 2.96527758 -4.44602347 3.55582214 -8.1875 4.1875 C-9.08855469 4.34605469 -9.98960938 4.50460938 -10.91796875 4.66796875 C-11.94857422 4.83232422 -11.94857422 4.83232422 -13 5 C-13.33 4.34 -13.66 3.68 -14 3 C-13.01 3 -12.02 3 -11 3 C-10.67 2.01 -10.34 1.02 -10 0 C-6.33694766 -0.74926071 -3.57644848 -1.2380014 0 0 Z " fill="#2B74F1" transform="translate(27,1)"/>
<path d="M0 0 C0 2 0 2 -2.4375 4.5625 C-3.283125 5.366875 -4.12875 6.17125 -5 7 C-5.33 7.33 -5.66 7.66 -6 8 C-7.66617115 8.04063832 -9.33388095 8.042721 -11 8 C-8.21659292 4.18570141 -5.12174212 0 0 0 Z " fill="#2895FA" transform="translate(16,2)"/>
<path d="M0 0 C1.65 0 3.3 0 5 0 C5.625 1.875 5.625 1.875 6 4 C5.34 4.66 4.68 5.32 4 6 C2.68 6 1.36 6 0 6 C0 4.02 0 2.04 0 0 Z " fill="#E1EDFE" transform="translate(35,33)"/>
<path d="M0 0 C0.66 0.66 1.32 1.32 2 2 C1.7578125 3.9453125 1.7578125 3.9453125 1.125 6.125 C0.92132813 6.84945312 0.71765625 7.57390625 0.5078125 8.3203125 C0.34023437 8.87460938 0.17265625 9.42890625 0 10 C-1.65 10.33 -3.3 10.66 -5 11 C-4.360625 9.9275 -3.72125 8.855 -3.0625 7.75 C-1.59398727 5.19177818 -0.47145458 2.94659114 0 0 Z " fill="#3680F6" transform="translate(124,107)"/>
<path d="M0 0 C2.3125 0.125 2.3125 0.125 5 1 C6.875 3.9375 6.875 3.9375 8 7 C7.67 7.66 7.34 8.32 7 9 C5.66666667 7.66666667 4.33333333 6.33333333 3 5 C2.4225 4.46375 1.845 3.9275 1.25 3.375 C0 2 0 2 0 0 Z " fill="#2A84F7" transform="translate(119,10)"/>
<path d="M0 0 C2.31 0.33 4.62 0.66 7 1 C7.33 2.32 7.66 3.64 8 5 C4.5625 4.1875 4.5625 4.1875 1 3 C0.67 2.01 0.34 1.02 0 0 Z " fill="#3084F4" transform="translate(106,1)"/>
<path d="M0 0 C1.2065625 0.0309375 1.2065625 0.0309375 2.4375 0.0625 C0.7875 1.7125 -0.8625 3.3625 -2.5625 5.0625 C-3.125 3.125 -3.125 3.125 -3.5625 1.0625 C-2.5625 0.0625 -2.5625 0.0625 0 0 Z " fill="#249AFA" transform="translate(120.5625,117.9375)"/>
</svg>
